<mxfile host="app.diagrams.net" modified="2023-11-27T07:26:28.923Z" agent="Mozilla/5.0 (Windows NT 10.0; Win64; x64) AppleWebKit/537.36 (KHTML, like Gecko) Chrome/119.0.0.0 Safari/537.36" etag="65Fj7VHe3WV3v2q3_ZrW" version="22.1.4" type="device">
  <diagram name="Page-1" id="Lcs6pabw0QT95mkP1Thf">
    <mxGraphModel dx="1050" dy="2734" grid="1" gridSize="10" guides="1" tooltips="1" connect="1" arrows="1" fold="1" page="1" pageScale="1" pageWidth="850" pageHeight="1100" math="0" shadow="0">
      <root>
        <mxCell id="0" />
        <mxCell id="1" parent="0" />
        <mxCell id="bj-XyjadaIn6lvJ4X1SC-1" value="Start" style="ellipse;whiteSpace=wrap;html=1;" vertex="1" parent="1">
          <mxGeometry x="330" y="-1670" width="120" height="80" as="geometry" />
        </mxCell>
        <mxCell id="bj-XyjadaIn6lvJ4X1SC-3" value="Input iNumberOfProcess" style="shape=parallelogram;perimeter=parallelogramPerimeter;whiteSpace=wrap;html=1;fixedSize=1;" vertex="1" parent="1">
          <mxGeometry x="295" y="-1540" width="190" height="60" as="geometry" />
        </mxCell>
        <mxCell id="bj-XyjadaIn6lvJ4X1SC-2" value="" style="endArrow=classic;html=1;rounded=0;" edge="1" parent="1">
          <mxGeometry width="50" height="50" relative="1" as="geometry">
            <mxPoint x="389.5" y="-1590" as="sourcePoint" />
            <mxPoint x="389.5" y="-1540" as="targetPoint" />
          </mxGeometry>
        </mxCell>
        <mxCell id="bj-XyjadaIn6lvJ4X1SC-5" value="" style="endArrow=classic;html=1;rounded=0;exitX=0.5;exitY=1;exitDx=0;exitDy=0;" edge="1" parent="1" source="bj-XyjadaIn6lvJ4X1SC-3">
          <mxGeometry width="50" height="50" relative="1" as="geometry">
            <mxPoint x="365" y="-1440" as="sourcePoint" />
            <mxPoint x="390" y="-1410" as="targetPoint" />
          </mxGeometry>
        </mxCell>
        <mxCell id="bj-XyjadaIn6lvJ4X1SC-7" value="" style="rounded=0;whiteSpace=wrap;html=1;" vertex="1" parent="1">
          <mxGeometry x="230" y="-1420" width="320" height="80" as="geometry" />
        </mxCell>
      </root>
    </mxGraphModel>
  </diagram>
</mxfile>
